<?xml version="1.0" encoding="UTF-8"?>
<svg id="_Слой_2" data-name="Слой 2" xmlns="http://www.w3.org/2000/svg" viewBox="0 0 197.95652 217.19368">
  <path d="M158.47826,108.59684c-18,4-22,6-40,11l14.42892,62.45001-34.94-44.70001c-15.23999,18.84003-35.64001,44.06-36.15002,44.69l-.00995.01001,14.41998-62.65002-33.74893-12.79999,34.86892-8.97998-15.53998-61.57001,34.88,45.01996c15.31-18.97998,36-45.00995,36.21997-45.00995,0,.69-7.94888,37.82996-13.42892,61.53998,6.06.10999,39,11,39,11Z" fill="#fff"/>
  <polygon points="124.91063 109.01311 173.21654 185.9507 115.65384 147.40522 99.33043 213.59684 98.47631 213.59684 82.24781 147.30305 24.33471 185.97989 23.81638 185.44698 72.54572 109.15912 73.13704 110.09353 72.83044 108.83791 72.88155 108.64079 72.54572 109.15912 24.04999 32.71794 24.56833 32.18503 82.20401 71.18308 98.90705 4.07898 115.50787 71.22688 173.45015 32.69606 124.91063 109.01311 124.8011 108.84522 124.86683 109.07879 124.91063 109.01311" fill="#ed438c"/>
</svg>