<?xml version="1.0" encoding="UTF-8"?>
<svg xmlns="http://www.w3.org/2000/svg" xmlns:xlink="http://www.w3.org/1999/xlink" viewBox="0 0 1903 245">
  <defs>
    <linearGradient id="_Безымянный_градиент_10" data-name="Безымянный градиент 10" x1=".5" y1="122.5" x2="1903.5" y2="122.5" gradientUnits="userSpaceOnUse">
      <stop offset="0" stop-color="#13002c"/>
      <stop offset="1" stop-color="#450029"/>
    </linearGradient>
  </defs>
  <g id="_Слой_4" data-name="Слой 4">
    <rect x=".5" y="-82.5" width="1903" height="410" fill="url(#_Безымянный_градиент_10)"/>
  </g>
  <g id="_Слой_6" data-name="Слой 6">
    <g>
      <path d="M1337.45374,121.5c-19.89001.20001-59.29004.70001-79.13.98999-146.23999,2.56-328.54999,4.56-474.75,9.54999-19.66998,1.28003-39.33997,2.81-59.04999,3.20001l14.92999,60.26001-34.94-44.70001c-15.23999,18.84003-35.64001,44.06-36.15002,44.69l-.00995.01001,14.41998-62.65002-225.83002-10.85999,226.95001-10.91998-15.53998-61.57001,34.88,45.01996c15.31-18.97998,36-45.00995,36.21997-45.00995,0,.69-8.10999,34.58997-13.59003,58.29999,6.06.10999,12.10004.33997,18.15002.63,26.34998,1.44,52.72998,3.84998,79.13,4.07001,146.47998,3.07996,328.65002,6.70996,474.74994,8.53998l39.56006.45001Z" fill="#fff"/>
      <path d="M509.75879,195.21874c2.56955,4.12355,5.15279,8.23573,7.69495,12.37635-3.16569-2.19846-6.30398-4.41403-9.44228-6.63526-.8428,3.90712-1.67874,7.81423-2.54898,11.71568-.87024-3.90145-1.70618-7.80857-2.54898-11.71568-3.13829,2.22123-6.27659,4.43679-9.44228,6.63526,2.54216-4.14062,5.12539-8.2528,7.69495-12.37635-1.03468-1.68585-2.42564-3.98116-3.26845-5.3481-1.48695-2.42059-2.96013-4.85256-4.4265-7.29025,2.5353,1.73146,5.05689,3.46858,7.56475,5.21141.50709.35312,1.13062.78598,1.80212,1.25302.86338-3.85588,1.74729-7.81427,2.62438-11.54482.87024,3.73056,1.76101,7.68895,2.62438,11.54482.67836-.46704,1.30188-.8999,1.80212-1.25302,2.50787-1.74283,5.02945-3.47995,7.56475-5.21141-1.46637,2.4377-2.93956,4.86966-4.4265,7.29025-.84966,1.37834-2.24062,3.66225-3.26845,5.3481Z" fill="#fff"/>
      <path d="M577.67377,64.62661c2.47272,3.98575,4.9586,7.9605,7.40496,11.96275-3.04639-2.12499-6.06642-4.26651-9.08645-6.41352-.81104,3.77655-1.61548,7.55309-2.45292,11.32416-.83744-3.77107-1.64188-7.54761-2.45292-11.32416-3.02003,2.147-6.04006,4.28852-9.08645,6.41352,2.44636-4.00224,4.93224-7.977,7.40496-11.96275-.99569-1.62951-2.33423-3.84812-3.14527-5.16937-1.43091-2.3397-2.84858-4.69039-4.25969-7.04662,2.43976,1.6736,4.86632,3.35267,7.27968,5.03725.48798.34132,1.08801.75972,1.73421,1.21115.83084-3.72702,1.68144-7.55313,2.52548-11.15901.83744,3.60589,1.69464,7.43199,2.52548,11.15901.65279-.45143,1.25282-.86983,1.73421-1.21115,2.41336-1.68458,4.83992-3.36366,7.27968-5.03725-1.41111,2.35623-2.82878,4.70692-4.25969,7.04662-.81764,1.33228-2.15619,3.53986-3.14527,5.16937Z" fill="#fff"/>
      <polygon points="729.88 122.67999 778.19 199.60999 720.63 161.07001 704.29999 227.26001 703.45001 227.26001 687.21997 160.96997 629.31 199.64001 628.78998 199.10999 677.52002 122.82001 629.02002 46.38 629.53998 45.84998 687.17999 84.84998 703.88 17.73999 720.47998 84.89001 778.41998 46.35999 767.15997 64.82996 752.65002 64.82996 744.33002 91.81 749.51001 91.81 729.88 122.67999" fill="#ed438c"/>
      <polygon points="837.48376 72.15997 833.76373 85.81 805.39374 85.81 787.81372 149.29999 765.12372 149.29999 782.70374 85.81 754.33374 85.81 755.08374 83.06 758.05371 72.15997 837.48376 72.15997" fill="#ed438c"/>
      <path d="M845.07483,72.15918h23.23926l-3.5459,37.00732c-1.0127,8.13232-1.90918,16.55664-3.33105,24.78613h.66211c4.53613-8.22949,9.75439-16.75146,14.09619-24.78613l22.25244-37.00732h19.12793l.4082,37.00732c-.15625,7.93701-.64355,16.45898-1.13086,24.78613h.66211c3.87451-8.32715,8.29443-16.75146,11.9541-24.78613l18.26025-37.00732h21.66113l-41.82324,77.14404h-28.65479l.625-36.94727c0-4.92871.75977-12.07324,1.44141-17.97705h-.66162c-2.90137,5.80664-6.46436,11.97559-9.75488,17.97705l-21.13916,36.94727h-28.10889l3.76025-77.14404Z" fill="#ed438c"/>
      <polygon points="986.26184 72.15918 1008.95618 72.15918 987.38098 149.30322 964.68762 149.30322 986.26184 72.15918" fill="#ed438c"/>
      <polygon points="1030.92004 72.15918 1053.6134 72.15918 1035.75989 135.69336 1076.68616 135.69336 1072.96545 149.30322 1009.34485 149.30322 1030.92004 72.15918" fill="#ed438c"/>
      <polygon points="1117.67542 72.15918 1140.36877 72.15918 1118.79456 149.30322 1096.10022 149.30322 1117.67542 72.15918" fill="#ed438c"/>
      <path d="M1149.37463,118.43066c0-26.68896,25.04297-47.69189,59.05957-47.69189,13.88477,0,24.01074,4.62305,30.06738,12.25488l-15.42773,8.52539c-4.03027-4.46924-8.7998-6.77979-15.78906-6.77979-20.01074,0-34.6709,15.39502-34.6709,32.59131,0,11.87598,6.54102,19.58789,23.3418,19.58789,4.45605,0,8.85449-1.08545,11.83301-2.68555l4.55469-15.15869h-17.69531l3.44727-13.22021h37.66211l-10.02832,36.86279c-8.15918,4.53906-20.15527,8.00684-33.65039,8.00684-26.6377,0-42.7041-12.00293-42.7041-32.29297Z" fill="#ed438c"/>
      <polygon points="1267.45862 72.15918 1290.15198 72.15918 1281.58557 102.12354 1318.41565 102.12354 1326.70959 72.15918 1349.40295 72.15918 1327.82874 149.30322 1305.1344 149.30322 1314.4801 116.31836 1277.65002 116.31836 1268.57776 149.30322 1245.88342 149.30322 1267.45862 72.15918" fill="#ed438c"/>
      <polygon points="1391.27405 85.81104 1362.90686 85.81104 1366.62659 72.15918 1446.05627 72.15918 1442.33557 85.81104 1413.96838 85.81104 1396.38635 149.30322 1373.69299 149.30322 1391.27405 85.81104" fill="#ed438c"/>
      <g>
        <path d="M764.45374,155.5l12,20h647l5-20h-664ZM797.57373,164.20001l-.46997,1.94995h-4.43005l-1.09998,4.44h-2.85999l2.71997-11.07001h8.05005l-.47003,1.96002h-5.22998l-.65002,2.72003h4.44ZM806.47375,170.58997l-1.75-4.06h-1.67004l-.97998,4.06h-2.85999l2.71997-11.07001h4.26001c2.66003,0,4.64001.77002,4.64001,2.84003s-1.47003,3.29999-3.46002,3.84003l2.11005,4.38995h-3.01001ZM818.49371,170.58997l-.15997-2.77997h-4.04999l-1.61005,2.77997h-3.13995l7.16998-11.07001h3.40997l1.37006,11.07001h-2.99005ZM834.98376,170.58997h-2.69l1.12994-4.38995c.29004-1.12006.82001-2.63,1.24005-3.71002h-.07001l-1.67004,2.54999-3.19995,4.53998h-1.15002l-.98999-4.53998-.42999-2.54999h-.07001c-.12,1.08997-.28003,2.62-.53998,3.71002l-1.09003,4.38995h-2.60999l2.70996-11.07001h3.03003l.96997,5.11005.35004,1.98999h.08002l1.26996-1.98999,3.41003-5.11005h3.02997l-2.70996,11.07001ZM848.55371,161.47998h-5.22998l-.58002,2.40002h4.44l-.46997,1.94995h-4.42999l-.71002,2.81006h5.40002l-.47003,1.94995h-8.25l2.72003-11.07001h8.04999l-.47003,1.96002ZM861.10376,170.58997h-3.61005l.08002-5.29999c0-.71002.09003-1.72998.17999-2.58002h-.08002c-.37.84003-.81995,1.72003-1.22998,2.58002l-2.65997,5.29999h-3.54004l.47003-11.07001h2.92999l-.45001,5.31c-.12,1.17004-.23999,2.38-.41998,3.56006h.08997c.57001-1.18005,1.22003-2.40002,1.77002-3.56006l2.79999-5.31h2.41003l.04999,5.31c-.02002,1.14001-.08002,2.37006-.14001,3.56006h.08002c.48999-1.19,1.03998-2.40002,1.5-3.56006l2.29999-5.31h2.72998l-5.25995,11.07001ZM871.47375,170.79999c-3.11005,0-5.10004-1.73999-5.10004-4.67999,0-3.91998,3.22003-6.79999,6.90002-6.79999,3.09998,0,5.09998,1.73999,5.09998,4.67999,0,3.90997-3.22998,6.79999-6.89996,6.79999ZM887.68372,166.20001l2.10004,4.38995h-3l-1.75-4.06h-1.67004l-.98999,4.06h-2.84998l2.71002-11.07001h4.25995c2.67004,0,4.65002.77002,4.65002,2.84003,0,2.06-1.47003,3.29999-3.46002,3.84003ZM902.79376,170.58997h-2.97003l-2.16998-5.04999-2.06,1.79999-.79999,3.25h-2.86005l2.72003-11.07001h2.84998l-1.10999,4.55005h.08002l5.10999-4.55005h3.12l-4.94,4.56,3.03003,6.51001Z" fill="#7f043f"/>
        <path d="M804.96375,164.69h-1.44l.79999-3.32001h1.41998c1.47003,0,2.27002.39996,2.27002,1.33002,0,1.19995-1.02997,1.98999-3.04999,1.98999Z" fill="#7f043f"/>
        <path d="M818.14374,164.59998l.08002,1.45001h-2.92004l.84003-1.45001c.63-1.10999,1.15997-2.14996,1.75-3.28998h.09003c.01996,1.15997.09998,2.20001.15997,3.28998Z" fill="#7f043f"/>
        <path d="M875.45374,164.14996c0,2.57001-1.90997,4.64001-3.84003,4.64001-1.5,0-2.31995-1.07001-2.31995-2.83002,0-2.56,1.89996-4.63,3.82996-4.63,1.51001,0,2.33002,1.07001,2.33002,2.82001Z" fill="#7f043f"/>
        <path d="M888.32373,162.70001c0,1.19995-1.02997,1.98999-3.04999,1.98999h-1.44l.78998-3.32001h1.42999c1.46002,0,2.27002.39996,2.27002,1.33002Z" fill="#7f043f"/>
      </g>
    </g>
  </g>
</svg>